# 3ds Max Wavefront OBJ Exporter v0.97b - (c)2007 guruware
# File Created: 11.01.2017 18:23:44

#
# object Box001
#

v  0.0000 -0.0000 -0.1600
v  2.5800 0.0000 -0.1600
v  2.5800 0.0000 0.0000
v  0.0000 0.0000 0.0000
v  -0.0000 3.2800 -0.1600
v  -0.0000 3.2800 -0.0000
v  2.5800 3.2800 -0.0000
v  2.5800 3.2800 -0.1600
# 8 vertices

vn 0.0000 -1.0000 0.0000
vn -0.0000 1.0000 -0.0000
vn -1.0000 -0.0000 -0.0000
vn -0.0000 0.0000 1.0000
vn 1.0000 0.0000 0.0000
vn 0.0000 -0.0000 -1.0000
# 6 vertex normals

vt 1.0000 0.0000 0.0000
vt 1.0000 1.0000 0.0000
vt 0.0000 1.0000 0.0000
vt 0.0000 0.0000 0.0000
# 4 texture coords

g Box001
s 2
f 1/1/1 2/2/1 3/3/1 
f 3/3/1 4/4/1 1/1/1 
s 4
f 5/4/2 6/1/2 7/2/2 
f 7/2/2 8/3/2 5/4/2 
s 8
f 1/4/3 4/1/3 6/2/3 
f 6/2/3 5/3/3 1/4/3 
s 16
f 4/4/4 3/1/4 7/2/4 
f 7/2/4 6/3/4 4/4/4 
s 32
f 3/4/5 2/1/5 8/2/5 
f 8/2/5 7/3/5 3/4/5 
s 64
f 2/4/6 1/1/6 5/2/6 
f 5/2/6 8/3/6 2/4/6 
# 12 faces

#
# object Box002
#

v  -0.1200 0.0000 2.9600
v  -0.1200 0.0000 -0.0000
v  -0.0000 0.0000 -0.0000
v  -0.0000 0.0000 2.9600
v  -0.1200 3.2800 2.9600
v  -0.0000 3.2800 2.9600
v  -0.0000 3.2800 -0.0000
v  -0.1200 3.2800 -0.0000
# 8 vertices

vn 0.0000 -1.0000 -0.0000
vn 0.0000 1.0000 -0.0000
vn 0.0000 0.0000 1.0000
vn 1.0000 0.0000 -0.0000
vn 0.0000 0.0000 -1.0000
vn -1.0000 0.0000 -0.0000
# 6 vertex normals

vt 1.0000 0.0000 0.0000
vt 1.0000 1.0000 0.0000
vt 0.0000 1.0000 0.0000
vt 0.0000 0.0000 0.0000
# 4 texture coords

g Box002
s 2
f 9/5/7 10/6/7 11/7/7 
f 11/7/7 12/8/7 9/5/7 
s 4
f 13/8/8 14/5/8 15/6/8 
f 15/6/8 16/7/8 13/8/8 
s 8
f 9/8/9 12/5/9 14/6/9 
f 14/6/9 13/7/9 9/8/9 
s 16
f 12/8/10 11/5/10 15/6/10 
f 15/6/10 14/7/10 12/8/10 
s 32
f 11/8/11 10/5/11 16/6/11 
f 16/6/11 15/7/11 11/8/11 
s 64
f 10/8/12 9/5/12 13/6/12 
f 13/6/12 16/7/12 10/8/12 
# 12 faces

#
# object Box003
#

v  -0.0000 0.0000 3.0800
v  -0.0000 0.0000 2.9600
v  5.3400 0.0000 2.9600
v  5.3400 0.0000 3.0800
v  -0.0000 3.2800 3.0800
v  5.3400 3.2800 3.0800
v  5.3400 3.2800 2.9600
v  -0.0000 3.2800 2.9600
# 8 vertices

vn 0.0000 -1.0000 -0.0000
vn 0.0000 1.0000 -0.0000
vn 0.0000 0.0000 1.0000
vn 1.0000 0.0000 -0.0000
vn 0.0000 0.0000 -1.0000
vn -1.0000 0.0000 -0.0000
# 6 vertex normals

vt 1.0000 0.0000 0.0000
vt 1.0000 1.0000 0.0000
vt 0.0000 1.0000 0.0000
vt 0.0000 0.0000 0.0000
# 4 texture coords

g Box003
s 2
f 17/9/13 18/10/13 19/11/13 
f 19/11/13 20/12/13 17/9/13 
s 4
f 21/12/14 22/9/14 23/10/14 
f 23/10/14 24/11/14 21/12/14 
s 8
f 17/12/15 20/9/15 22/10/15 
f 22/10/15 21/11/15 17/12/15 
s 16
f 20/12/16 19/9/16 23/10/16 
f 23/10/16 22/11/16 20/12/16 
s 32
f 19/12/17 18/9/17 24/10/17 
f 24/10/17 23/11/17 19/12/17 
s 64
f 18/12/18 17/9/18 21/10/18 
f 21/10/18 24/11/18 18/12/18 
# 12 faces

#
# object Box004
#

v  2.5800 0.0000 -0.1600
v  2.5800 0.0000 -0.2800
v  5.3400 0.0000 -0.2800
v  5.3400 0.0000 -0.1600
v  2.5800 3.2800 -0.1600
v  5.3400 3.2800 -0.1600
v  5.3400 3.2800 -0.2800
v  2.5800 3.2800 -0.2800
# 8 vertices

vn 0.0000 -1.0000 -0.0000
vn 0.0000 1.0000 -0.0000
vn 0.0000 0.0000 1.0000
vn 1.0000 0.0000 -0.0000
vn 0.0000 0.0000 -1.0000
vn -1.0000 0.0000 -0.0000
# 6 vertex normals

vt 1.0000 0.0000 0.0000
vt 1.0000 1.0000 0.0000
vt 0.0000 1.0000 0.0000
vt 0.0000 0.0000 0.0000
# 4 texture coords

g Box004
s 2
f 25/13/19 26/14/19 27/15/19 
f 27/15/19 28/16/19 25/13/19 
s 4
f 29/16/20 30/13/20 31/14/20 
f 31/14/20 32/15/20 29/16/20 
s 8
f 25/16/21 28/13/21 30/14/21 
f 30/14/21 29/15/21 25/16/21 
s 16
f 28/16/22 27/13/22 31/14/22 
f 31/14/22 30/15/22 28/16/22 
s 32
f 27/16/23 26/13/23 32/14/23 
f 32/14/23 31/15/23 27/16/23 
s 64
f 26/16/24 25/13/24 29/14/24 
f 29/14/24 32/15/24 26/16/24 
# 12 faces

#
# object Box005
#

v  5.3400 0.0000 2.9600
v  5.3400 0.0000 -0.1600
v  5.4600 0.0000 -0.1600
v  5.4600 0.0000 2.9600
v  5.3400 3.2800 2.9600
v  5.4600 3.2800 2.9600
v  5.4600 3.2800 -0.1600
v  5.3400 3.2800 -0.1600
# 8 vertices

vn 0.0000 -1.0000 -0.0000
vn 0.0000 1.0000 -0.0000
vn 0.0000 0.0000 1.0000
vn 1.0000 0.0000 -0.0000
vn 0.0000 0.0000 -1.0000
vn -1.0000 0.0000 -0.0000
# 6 vertex normals

vt 1.0000 0.0000 0.0000
vt 1.0000 1.0000 0.0000
vt 0.0000 1.0000 0.0000
vt 0.0000 0.0000 0.0000
# 4 texture coords

g Box005
s 2
f 33/17/25 34/18/25 35/19/25 
f 35/19/25 36/20/25 33/17/25 
s 4
f 37/20/26 38/17/26 39/18/26 
f 39/18/26 40/19/26 37/20/26 
s 8
f 33/20/27 36/17/27 38/18/27 
f 38/18/27 37/19/27 33/20/27 
s 16
f 36/20/28 35/17/28 39/18/28 
f 39/18/28 38/19/28 36/20/28 
s 32
f 35/20/29 34/17/29 40/18/29 
f 40/18/29 39/19/29 35/20/29 
s 64
f 34/20/30 33/17/30 37/18/30 
f 37/18/30 40/19/30 34/20/30 
# 12 faces

#
# object Box006
#

v  -0.0000 -0.0998 2.9600
v  -0.0000 -0.0998 -0.1600
v  5.3400 -0.0998 -0.1600
v  5.3400 -0.0998 2.9600
v  -0.0000 0.0002 2.9600
v  5.3400 0.0002 2.9600
v  5.3400 0.0002 -0.1600
v  -0.0000 0.0002 -0.1600
# 8 vertices

vn 0.0000 -1.0000 -0.0000
vn 0.0000 1.0000 -0.0000
vn 0.0000 0.0000 1.0000
vn 1.0000 0.0000 -0.0000
vn 0.0000 0.0000 -1.0000
vn -1.0000 0.0000 -0.0000
# 6 vertex normals

vt 1.0000 0.0000 0.0000
vt 1.0000 1.0000 0.0000
vt 0.0000 1.0000 0.0000
vt 0.0000 0.0000 0.0000
# 4 texture coords

g Box006
s 2
f 41/21/31 42/22/31 43/23/31 
f 43/23/31 44/24/31 41/21/31 
s 4
f 45/24/32 46/21/32 47/22/32 
f 47/22/32 48/23/32 45/24/32 
s 8
f 41/24/33 44/21/33 46/22/33 
f 46/22/33 45/23/33 41/24/33 
s 16
f 44/24/34 43/21/34 47/22/34 
f 47/22/34 46/23/34 44/24/34 
s 32
f 43/24/35 42/21/35 48/22/35 
f 48/22/35 47/23/35 43/24/35 
s 64
f 42/24/36 41/21/36 45/22/36 
f 45/22/36 48/23/36 42/24/36 
# 12 faces

#
# object Box007
#

v  -0.0000 3.2800 2.9600
v  -0.0000 3.2800 -0.1600
v  5.3400 3.2800 -0.1600
v  5.3400 3.2800 2.9600
v  -0.0000 3.3800 2.9600
v  5.3400 3.3800 2.9600
v  5.3400 3.3800 -0.1600
v  -0.0000 3.3800 -0.1600
# 8 vertices

vn 0.0000 -1.0000 -0.0000
vn 0.0000 1.0000 -0.0000
vn 0.0000 0.0000 1.0000
vn 1.0000 0.0000 -0.0000
vn 0.0000 0.0000 -1.0000
vn -1.0000 0.0000 -0.0000
# 6 vertex normals

vt 1.0000 0.0000 0.0000
vt 1.0000 1.0000 0.0000
vt 0.0000 1.0000 0.0000
vt 0.0000 0.0000 0.0000
# 4 texture coords

g Box007
s 2
f 49/25/37 50/26/37 51/27/37 
f 51/27/37 52/28/37 49/25/37 
s 4
f 53/28/38 54/25/38 55/26/38 
f 55/26/38 56/27/38 53/28/38 
s 8
f 49/28/39 52/25/39 54/26/39 
f 54/26/39 53/27/39 49/28/39 
s 16
f 52/28/40 51/25/40 55/26/40 
f 55/26/40 54/27/40 52/28/40 
s 32
f 51/28/41 50/25/41 56/26/41 
f 56/26/41 55/27/41 51/28/41 
s 64
f 50/28/42 49/25/42 53/26/42 
f 53/26/42 56/27/42 50/28/42 
# 12 faces

#
# object Box008
#

v  3.2761 0.0000 1.8000
v  3.2761 0.0000 -0.1600
v  3.8761 0.0000 -0.1600
v  3.8761 0.0000 1.8000
v  3.2761 0.9000 1.8000
v  3.8761 0.9000 1.8000
v  3.8761 0.9000 -0.1600
v  3.2761 0.9000 -0.1600
# 8 vertices

vn 0.0000 -1.0000 -0.0000
vn 0.0000 1.0000 -0.0000
vn 0.0000 0.0000 1.0000
vn 1.0000 0.0000 -0.0000
vn 0.0000 0.0000 -1.0000
vn -1.0000 0.0000 -0.0000
# 6 vertex normals

vt 1.0000 0.0000 0.0000
vt 1.0000 1.0000 0.0000
vt 0.0000 1.0000 0.0000
vt 0.0000 0.0000 0.0000
# 4 texture coords

g Box008
s 2
f 57/29/43 58/30/43 59/31/43 
f 59/31/43 60/32/43 57/29/43 
s 4
f 61/32/44 62/29/44 63/30/44 
f 63/30/44 64/31/44 61/32/44 
s 8
f 57/32/45 60/29/45 62/30/45 
f 62/30/45 61/31/45 57/32/45 
s 16
f 60/32/46 59/29/46 63/30/46 
f 63/30/46 62/31/46 60/32/46 
s 32
f 59/32/47 58/29/47 64/30/47 
f 64/30/47 63/31/47 59/32/47 
s 64
f 58/32/48 57/29/48 61/30/48 
f 61/30/48 64/31/48 58/32/48 
# 12 faces

#
# object Box009
#

v  2.5800 3.2800 -0.1600
v  5.3400 3.2800 -0.1600
v  5.3400 -0.4200 -0.1600
v  2.5800 -0.4200 -0.1600
# 4 vertices

vn 0.0000 1.0000 -0.0000
vn 0.0000 -1.0000 -0.0000
vn 0.0000 0.0000 1.0000
vn 1.0000 0.0000 -0.0000
vn 0.0000 0.0000 -1.0000
vn -1.0000 0.0000 -0.0000
# 6 vertex normals

vt 0.0000 1.0000 0.0000
vt 0.0000 0.0000 0.0000
vt 1.0000 1.0000 0.0000
vt 1.0000 0.0000 0.0000
# 4 texture coords

g Box009
s 2
f 65/33/49 65/34/49 66/35/49 
f 66/36/49 66/35/49 65/34/49 
s 4
f 67/34/50 68/36/50 67/33/50 
f 68/35/50 67/33/50 68/36/50 
s 8
f 66/36/51 65/34/51 67/35/51 
f 68/33/51 67/35/51 65/34/51 
s 16
f 66/36/52 66/34/52 67/35/52 
f 67/33/52 67/35/52 66/34/52 
s 32
f 65/36/53 66/34/53 68/35/53 
f 67/33/53 68/35/53 66/34/53 
s 64
f 65/36/54 65/34/54 68/35/54 
f 68/33/54 68/35/54 65/34/54 
# 12 faces

#
# object Box010
#

v  3.8798 0.0000 0.4423
v  3.8798 0.0000 -0.1577
v  4.7398 0.0000 -0.1577
v  4.7398 0.0000 0.4423
v  3.8798 0.9000 0.4423
v  4.7398 0.9000 0.4423
v  4.7398 0.9000 -0.1577
v  3.8798 0.9000 -0.1577
# 8 vertices

vn 0.0000 -1.0000 -0.0000
vn 0.0000 1.0000 -0.0000
vn 0.0000 0.0000 1.0000
vn 1.0000 0.0000 -0.0000
vn 0.0000 0.0000 -1.0000
vn -1.0000 0.0000 -0.0000
# 6 vertex normals

vt 1.0000 0.0000 0.0000
vt 1.0000 1.0000 0.0000
vt 0.0000 1.0000 0.0000
vt 0.0000 0.0000 0.0000
# 4 texture coords

g Box010
s 2
f 69/37/55 70/38/55 71/39/55 
f 71/39/55 72/40/55 69/37/55 
s 4
f 73/40/56 74/37/56 75/38/56 
f 75/38/56 76/39/56 73/40/56 
s 8
f 69/40/57 72/37/57 74/38/57 
f 74/38/57 73/39/57 69/40/57 
s 16
f 72/40/58 71/37/58 75/38/58 
f 75/38/58 74/39/58 72/40/58 
s 32
f 71/40/59 70/37/59 76/38/59 
f 76/38/59 75/39/59 71/40/59 
s 64
f 70/40/60 69/37/60 73/38/60 
f 73/38/60 76/39/60 70/40/60 
# 12 faces

#
# object Box011
#

v  4.7389 0.0000 1.4438
v  4.7389 0.0000 -0.1562
v  5.3389 0.0000 -0.1562
v  5.3389 0.0000 1.4438
v  4.7389 0.9000 1.4438
v  5.3389 0.9000 1.4438
v  5.3389 0.9000 -0.1562
v  4.7389 0.9000 -0.1562
# 8 vertices

vn 0.0000 -1.0000 -0.0000
vn 0.0000 1.0000 -0.0000
vn 0.0000 0.0000 1.0000
vn 1.0000 0.0000 -0.0000
vn 0.0000 0.0000 -1.0000
vn -1.0000 0.0000 -0.0000
# 6 vertex normals

vt 1.0000 0.0000 0.0000
vt 1.0000 1.0000 0.0000
vt 0.0000 1.0000 0.0000
vt 0.0000 0.0000 0.0000
# 4 texture coords

g Box011
s 2
f 77/41/61 78/42/61 79/43/61 
f 79/43/61 80/44/61 77/41/61 
s 4
f 81/44/62 82/41/62 83/42/62 
f 83/42/62 84/43/62 81/44/62 
s 8
f 77/44/63 80/41/63 82/42/63 
f 82/42/63 81/43/63 77/44/63 
s 16
f 80/44/64 79/41/64 83/42/64 
f 83/42/64 82/43/64 80/44/64 
s 32
f 79/44/65 78/41/65 84/42/65 
f 84/42/65 83/43/65 79/44/65 
s 64
f 78/44/66 77/41/66 81/42/66 
f 81/42/66 84/43/66 78/44/66 
# 12 faces

#
# object Box012
#

v  4.7389 0.0000 2.0831
v  4.7389 0.0000 1.4431
v  5.3389 0.0000 1.4431
v  5.3389 0.0000 2.0831
v  4.7389 1.9600 2.0831
v  5.3389 1.9600 2.0831
v  5.3389 1.9600 1.4431
v  4.7389 1.9600 1.4431
# 8 vertices

vn 0.0000 -1.0000 -0.0000
vn 0.0000 1.0000 -0.0000
vn 0.0000 0.0000 1.0000
vn 1.0000 0.0000 -0.0000
vn 0.0000 0.0000 -1.0000
vn -1.0000 0.0000 -0.0000
# 6 vertex normals

vt 1.0000 0.0000 0.0000
vt 1.0000 1.0000 0.0000
vt 0.0000 1.0000 0.0000
vt 0.0000 0.0000 0.0000
# 4 texture coords

g Box012
s 2
f 85/45/67 86/46/67 87/47/67 
f 87/47/67 88/48/67 85/45/67 
s 4
f 89/48/68 90/45/68 91/46/68 
f 91/46/68 92/47/68 89/48/68 
s 8
f 85/48/69 88/45/69 90/46/69 
f 90/46/69 89/47/69 85/48/69 
s 16
f 88/48/70 87/45/70 91/46/70 
f 91/46/70 90/47/70 88/48/70 
s 32
f 87/48/71 86/45/71 92/46/71 
f 92/46/71 91/47/71 87/48/71 
s 64
f 86/48/72 85/45/72 89/46/72 
f 89/46/72 92/47/72 86/48/72 
# 12 faces

#
# object Box013
#

v  4.9789 1.3475 1.4438
v  4.9789 1.3475 -0.1562
v  5.3389 1.3475 -0.1562
v  5.3389 1.3475 1.4438
v  4.9789 1.9475 1.4438
v  5.3389 1.9475 1.4438
v  5.3389 1.9475 -0.1562
v  4.9789 1.9475 -0.1562
# 8 vertices

vn 0.0000 -1.0000 -0.0000
vn 0.0000 1.0000 -0.0000
vn 0.0000 0.0000 1.0000
vn 1.0000 0.0000 -0.0000
vn 0.0000 0.0000 -1.0000
vn -1.0000 0.0000 -0.0000
# 6 vertex normals

vt 1.0000 0.0000 0.0000
vt 1.0000 1.0000 0.0000
vt 0.0000 1.0000 0.0000
vt 0.0000 0.0000 0.0000
# 4 texture coords

g Box013
s 2
f 93/49/73 94/50/73 95/51/73 
f 95/51/73 96/52/73 93/49/73 
s 4
f 97/52/74 98/49/74 99/50/74 
f 99/50/74 100/51/74 97/52/74 
s 8
f 93/52/75 96/49/75 98/50/75 
f 98/50/75 97/51/75 93/52/75 
s 16
f 96/52/76 95/49/76 99/50/76 
f 99/50/76 98/51/76 96/52/76 
s 32
f 95/52/77 94/49/77 100/50/77 
f 100/50/77 99/51/77 95/52/77 
s 64
f 94/52/78 93/49/78 97/50/78 
f 97/50/78 100/51/78 94/52/78 
# 12 faces

